<!-- Generated by IcoMoon.io -->
<svg version="1.1" xmlns="http://www.w3.org/2000/svg" width="32" height="32" viewBox="0 0 32 32">
<title>book</title>
<path fill="#fff" stroke="#4f2ee8" stroke-linejoin="round" stroke-linecap="round" stroke-miterlimit="10" stroke-width="0.48" d="M18.679 8.952h9.192c0.513 0 0.93 0.416 0.93 0.93v0 13.479c0 0.513-0.416 0.93-0.93 0.93v0h-9.192c-1.436 0.004-2.301 0.363-2.622 1.331v-15.197c0.546-1.076 1.442-1.528 2.622-1.472zM13.321 8.952h-9.192c-0.513 0-0.93 0.416-0.93 0.93v0 13.479c0 0.513 0.416 0.93 0.93 0.93h9.192c1.436 0.004 2.301 0.363 2.622 1.331v-15.197c-0.546-1.076-1.442-1.528-2.622-1.472z"></path>
<path fill="#fff" stroke="#4f2ee8" stroke-linejoin="round" stroke-linecap="round" stroke-miterlimit="10" stroke-width="0.48" d="M18.427 6.382h7.125c0 0 0 0 0 0 0.511 0 0.925 0.414 0.925 0.925 0 0 0 0 0 0v-0 14.1c0 0 0 0 0 0 0 0.511-0.414 0.925-0.925 0.925-0 0-0 0-0 0h-6.174c-1.772 0.017-2.713 0.94-3.327 2.685v-17.302c0.495-0.975 1.307-1.384 2.376-1.334zM13.573 6.382h-7.125c-0 0-0 0-0 0-0.511 0-0.925 0.414-0.925 0.925 0 0 0 0 0 0v-0 14.1c0 0 0 0 0 0 0 0.511 0.414 0.925 0.925 0.925 0 0 0 0 0 0h6.174c1.772 0.017 2.713 0.94 3.327 2.685v-17.302c-0.495-0.975-1.307-1.384-2.376-1.334z"></path>
</svg>
